<svg width="240" height="240" viewBox="0 0 240 240" fill="none" xmlns="http://www.w3.org/2000/svg">
<path d="M120 42.87C111.602 42.8727 103.354 45.0949 96.0921 49.3115C88.8298 53.5281 82.8109 59.5894 78.6453 66.8811C74.4797 74.1728 72.3153 82.436 72.3714 90.8336C72.4276 99.2311 74.7023 107.465 78.965 114.7L92.285 101.38C90.173 95.9865 89.6793 90.0943 90.8646 84.4246C92.0498 78.7549 94.8624 73.5538 98.9582 69.4581C103.054 65.3624 108.255 62.5497 113.925 61.3645C119.594 60.1793 125.487 60.6729 130.88 62.785L144.2 49.5C136.875 45.1578 128.516 42.8677 120 42.87Z" fill="#160459"/>
<path d="M161.035 66.3L147.715 79.62C149.83 85.0121 150.326 90.9039 149.143 96.5737C147.96 102.243 145.149 107.445 141.054 111.541C136.959 115.638 131.759 118.451 126.089 119.636C120.42 120.822 114.528 120.328 109.135 118.215L95.815 131.535C104.913 136.893 115.533 139.077 126.007 137.743C136.481 136.41 146.216 131.634 153.681 124.167C161.146 116.701 165.919 106.965 167.25 96.4909C168.581 86.0166 166.395 75.3969 161.035 66.3Z" fill="#2BBF86"/>
<path d="M120 105.385C128.221 105.385 134.885 98.7208 134.885 90.5C134.885 82.2793 128.221 75.615 120 75.615C111.779 75.615 105.115 82.2793 105.115 90.5C105.115 98.7208 111.779 105.385 120 105.385Z" fill="url(#paint0_linear_6_764)"/>
<path d="M60.385 95.01C62.804 95.01 64.765 93.049 64.765 90.63C64.765 88.211 62.804 86.25 60.385 86.25C57.966 86.25 56.005 88.211 56.005 90.63C56.005 93.049 57.966 95.01 60.385 95.01Z" fill="#160459"/>
<path d="M77.7551 52.815C80.1741 52.815 82.1351 50.854 82.1351 48.435C82.1351 46.016 80.1741 44.055 77.7551 44.055C75.3361 44.055 73.3751 46.016 73.3751 48.435C73.3751 50.854 75.3361 52.815 77.7551 52.815Z" fill="#160459"/>
<path d="M119.87 35.265C122.289 35.265 124.25 33.304 124.25 30.885C124.25 28.466 122.289 26.505 119.87 26.505C117.451 26.505 115.49 28.466 115.49 30.885C115.49 33.304 117.451 35.265 119.87 35.265Z" fill="#160459"/>
<path d="M179.615 94.75C182.034 94.75 183.995 92.789 183.995 90.37C183.995 87.951 182.034 85.99 179.615 85.99C177.196 85.99 175.235 87.951 175.235 90.37C175.235 92.789 177.196 94.75 179.615 94.75Z" fill="#2BBF86"/>
<path d="M162.245 136.945C164.664 136.945 166.625 134.984 166.625 132.565C166.625 130.146 164.664 128.185 162.245 128.185C159.826 128.185 157.865 130.146 157.865 132.565C157.865 134.984 159.826 136.945 162.245 136.945Z" fill="#2BBF86"/>
<path d="M120.13 154.5C122.549 154.5 124.51 152.539 124.51 150.12C124.51 147.701 122.549 145.74 120.13 145.74C117.711 145.74 115.75 147.701 115.75 150.12C115.75 152.539 117.711 154.5 120.13 154.5Z" fill="#2BBF86"/>
<path d="M97.3049 150.01C99.724 150.01 101.685 148.049 101.685 145.63C101.685 143.211 99.724 141.25 97.3049 141.25C94.8859 141.25 92.9249 143.211 92.9249 145.63C92.9249 148.049 94.8859 150.01 97.3049 150.01Z" fill="#2BBF86"/>
<path d="M64.97 117.815C67.389 117.815 69.35 115.854 69.35 113.435C69.35 111.016 67.389 109.055 64.97 109.055C62.551 109.055 60.59 111.016 60.59 113.435C60.59 115.854 62.551 117.815 64.97 117.815Z" fill="#160459"/>
<path d="M64.87 72.185C67.289 72.185 69.25 70.224 69.25 67.805C69.25 65.386 67.289 63.425 64.87 63.425C62.451 63.425 60.49 65.386 60.49 67.805C60.49 70.224 62.451 72.185 64.87 72.185Z" fill="#160459"/>
<path d="M97.0649 39.85C99.484 39.85 101.445 37.889 101.445 35.47C101.445 33.051 99.484 31.09 97.0649 31.09C94.6459 31.09 92.6849 33.051 92.6849 35.47C92.6849 37.889 94.6459 39.85 97.0649 39.85Z" fill="#160459"/>
<path d="M142.695 39.75C145.114 39.75 147.075 37.789 147.075 35.37C147.075 32.951 145.114 30.99 142.695 30.99C140.276 30.99 138.315 32.951 138.315 35.37C138.315 37.789 140.276 39.75 142.695 39.75Z" fill="#160459"/>
<path d="M175.03 71.945C177.449 71.945 179.41 69.984 179.41 67.565C179.41 65.146 177.449 63.185 175.03 63.185C172.611 63.185 170.65 65.146 170.65 67.565C170.65 69.984 172.611 71.945 175.03 71.945Z" fill="#2BBF86"/>
<path d="M175.13 117.575C177.549 117.575 179.51 115.614 179.51 113.195C179.51 110.776 177.549 108.815 175.13 108.815C172.711 108.815 170.75 110.776 170.75 113.195C170.75 115.614 172.711 117.575 175.13 117.575Z" fill="#2BBF86"/>
<path d="M142.935 149.91C145.354 149.91 147.315 147.949 147.315 145.53C147.315 143.111 145.354 141.15 142.935 141.15C140.516 141.15 138.555 143.111 138.555 145.53C138.555 147.949 140.516 149.91 142.935 149.91Z" fill="#2BBF86"/>
<path d="M54.235 202.455V179.225H57.455L71.655 198.225L71.125 198.52C71.035 197.97 70.96 197.37 70.895 196.73C70.83 196.09 70.76 195.37 70.695 194.64C70.63 193.91 70.605 193.1 70.56 192.285C70.515 191.47 70.515 190.57 70.495 189.665C70.475 188.76 70.46 187.815 70.46 186.84V179.225H74.045V202.455H70.76L56.79 184.135L57.155 183.67C57.265 185.02 57.3533 186.17 57.42 187.12C57.51 188.05 57.575 188.85 57.62 189.51C57.665 190.17 57.73 190.685 57.755 191.105C57.78 191.525 57.785 191.835 57.785 192.105C57.785 192.375 57.82 192.605 57.82 192.8V202.46L54.235 202.455ZM87.815 202.785C86.152 202.816 84.5079 202.428 83.035 201.655C81.6937 200.909 80.5728 199.822 79.785 198.505C78.9939 197.11 78.5932 195.528 78.625 193.925C78.609 192.645 78.8328 191.373 79.285 190.175C79.7012 189.094 80.3207 188.103 81.11 187.255C81.9038 186.419 82.867 185.763 83.935 185.33C85.0695 184.86 86.2871 184.624 87.515 184.635C88.5753 184.634 89.6247 184.848 90.6 185.264C91.5754 185.68 92.4564 186.289 93.19 187.055C93.9293 187.823 94.4953 188.74 94.85 189.745C95.2573 190.813 95.4493 191.952 95.415 193.095L95.38 194.555H81.145L80.38 191.835H92.425L91.925 192.4V191.6C91.8676 190.893 91.6148 190.216 91.195 189.645C90.7712 189.066 90.2163 188.596 89.5758 188.272C88.9354 187.949 88.2274 187.782 87.51 187.785C86.4663 187.755 85.4326 187.996 84.51 188.485C83.6899 188.931 83.0383 189.634 82.655 190.485C82.2041 191.497 81.9886 192.598 82.025 193.705C81.9979 194.814 82.2598 195.912 82.785 196.89C83.2901 197.77 84.0407 198.484 84.945 198.945C85.9411 199.447 87.0448 199.698 88.16 199.675C88.9766 199.683 89.7874 199.537 90.55 199.245C91.4417 198.867 92.2619 198.34 92.975 197.685L94.7 200.105C94.1239 200.67 93.4625 201.141 92.74 201.5C91.9698 201.906 91.1586 202.23 90.32 202.465C89.5023 202.679 88.6603 202.787 87.815 202.785ZM101.285 202.455V180.585H104.705V202.455H101.285ZM97.67 188.35V185.03H108.75V188.35H97.67Z" fill="#160459"/>
<path d="M112.84 202.89V200.265L126.08 182.545L126.58 183.11H113.705V179.66H130.525V182.25L117.355 200L116.825 199.435H130.89V202.89H112.84ZM143.08 203.22C141.417 203.251 139.773 202.863 138.3 202.09C136.958 201.345 135.836 200.258 135.05 198.94C134.259 197.545 133.858 195.963 133.89 194.36C133.874 193.08 134.098 191.808 134.55 190.61C134.966 189.529 135.586 188.538 136.375 187.69C137.169 186.854 138.132 186.198 139.2 185.765C140.335 185.295 141.552 185.059 142.78 185.07C144.381 185.06 145.945 185.546 147.259 186.461C148.572 187.376 149.57 188.675 150.115 190.18C150.522 191.248 150.714 192.387 150.68 193.53L150.645 194.99H136.41L135.645 192.27H147.69L147.19 192.835V192.04C147.133 191.332 146.88 190.653 146.46 190.08C146.036 189.501 145.481 189.031 144.841 188.707C144.2 188.384 143.492 188.217 142.775 188.22C141.731 188.19 140.698 188.431 139.775 188.92C138.955 189.366 138.303 190.069 137.92 190.92C137.469 191.932 137.254 193.033 137.29 194.14C137.263 195.25 137.525 196.347 138.05 197.325C138.555 198.205 139.306 198.919 140.21 199.38C141.205 199.884 142.31 200.135 143.425 200.11C144.242 200.118 145.052 199.972 145.815 199.68C146.707 199.303 147.527 198.775 148.24 198.12L149.965 200.54C149.39 201.106 148.729 201.577 148.005 201.935C147.235 202.341 146.424 202.665 145.585 202.9C144.767 203.114 143.925 203.222 143.08 203.22ZM154.395 202.89V185.465H157.845V190.965L157.51 189.635C157.755 188.794 158.174 188.014 158.74 187.345C159.301 186.685 159.979 186.134 160.74 185.72C161.476 185.329 162.297 185.123 163.13 185.12C163.486 185.119 163.841 185.152 164.19 185.22C164.474 185.268 164.753 185.347 165.02 185.455L164.125 189.17C163.836 189.052 163.536 188.963 163.23 188.905C162.928 188.816 162.615 188.771 162.3 188.77C161.706 188.77 161.118 188.895 160.575 189.135C160.04 189.36 159.554 189.688 159.145 190.1C158.741 190.513 158.416 190.996 158.185 191.525C157.937 192.078 157.812 192.679 157.82 193.285V202.91L154.395 202.89Z" fill="#2BBF86"/>
<path d="M168.24 190.545C169.008 188.898 170.248 187.516 171.802 186.573C173.356 185.631 175.154 185.17 176.97 185.249C178.786 185.329 180.537 185.945 182.003 187.02C183.469 188.095 184.583 189.58 185.204 191.288C185.826 192.996 185.927 194.85 185.495 196.615C185.063 198.381 184.117 199.978 182.777 201.206C181.437 202.434 179.763 203.237 177.967 203.514C176.17 203.79 174.332 203.528 172.685 202.76C171.591 202.25 170.608 201.529 169.793 200.639C168.977 199.749 168.345 198.708 167.932 197.573C167.519 196.439 167.334 195.234 167.387 194.029C167.44 192.823 167.73 191.639 168.24 190.545ZM182.1 197C182.61 195.907 182.784 194.686 182.601 193.494C182.418 192.301 181.885 191.19 181.07 190.3C180.255 189.411 179.194 188.783 178.022 188.496C176.85 188.209 175.619 188.276 174.486 188.689C173.352 189.102 172.366 189.841 171.652 190.814C170.939 191.787 170.53 192.95 170.478 194.156C170.425 195.361 170.731 196.555 171.357 197.586C171.983 198.618 172.901 199.44 173.995 199.95C175.461 200.633 177.138 200.706 178.658 200.153C180.178 199.6 181.416 198.466 182.1 197Z" fill="#2BBF86"/>
<defs>
<linearGradient id="paint0_linear_6_764" x1="84.295" y1="54.795" x2="154.215" y2="124.715" gradientUnits="userSpaceOnUse">
<stop stop-color="#DEAD3B"/>
<stop offset="1" stop-color="#F56622"/>
</linearGradient>
</defs>
</svg>
