<svg id="Layer_1" data-name="Layer 1" xmlns="http://www.w3.org/2000/svg" xmlns:xlink="http://www.w3.org/1999/xlink" viewBox="0 0 480 236"><defs><style>.cls-1{fill:#160459;}.cls-2{fill:#fff;}.cls-3{fill:#2bbf86;}.cls-4{fill:url(#linear-gradient);}</style><linearGradient id="linear-gradient" x1="53.2" y1="93.45" x2="101.27" y2="141.52" gradientUnits="userSpaceOnUse"><stop offset="0" stop-color="#dead3b"/><stop offset="1" stop-color="#f56622"/></linearGradient></defs><rect class="cls-1" width="480" height="236"/><path class="cls-2" d="M77.75,85.26a32.76,32.76,0,0,0-28.21,49.38l9.16-9.16A20.46,20.46,0,0,1,85.23,99l9.16-9.15A32.55,32.55,0,0,0,77.75,85.26Z"/><path class="cls-3" d="M106,101.36l-9.16,9.16a20.45,20.45,0,0,1-26.52,26.53l-9.16,9.16A32.76,32.76,0,0,0,106,101.36Z"/><circle class="cls-4" cx="77.75" cy="118" r="10.23"/><circle class="cls-2" cx="36.76" cy="118.09" r="3.01"/><circle class="cls-2" cx="48.71" cy="89.08" r="3.01"/><circle class="cls-2" cx="77.66" cy="77.01" r="3.01"/><circle class="cls-3" cx="118.74" cy="117.91" r="3.01"/><circle class="cls-3" cx="106.79" cy="146.92" r="3.01"/><circle class="cls-3" cx="77.84" cy="158.99" r="3.01"/><circle class="cls-3" cx="62.15" cy="155.9" r="3.01"/><circle class="cls-2" cx="39.92" cy="133.77" r="3.01"/><circle class="cls-2" cx="39.85" cy="102.4" r="3.01"/><circle class="cls-2" cx="61.98" cy="80.17" r="3.01"/><circle class="cls-2" cx="93.35" cy="80.1" r="3.01"/><circle class="cls-3" cx="115.58" cy="102.23" r="3.01"/><circle class="cls-3" cx="115.65" cy="133.6" r="3.01"/><circle class="cls-3" cx="93.52" cy="155.83" r="3.01"/><path class="cls-2" d="M148.22,143.09V89.93h7.37l32.5,43.51-1.21.69c-.21-1.27-.38-2.63-.54-4.1s-.3-3.12-.45-4.79-.2-3.52-.3-5.39-.11-3.92-.16-6-.07-4.23-.07-6.45V89.93h8.2v53.16H186l-32-41.92.83-1.07c.26,3.09.46,5.73.61,7.9s.36,4,.46,5.47.25,2.68.3,3.65.08,1.67.08,2.27.07,1.14.07,1.6v22.1Zm76.85.76a22.66,22.66,0,0,1-10.93-2.58,20,20,0,0,1-7.44-7.22A20.34,20.34,0,0,1,204,123.57a23.15,23.15,0,0,1,1.52-8.58,20.44,20.44,0,0,1,4.17-6.68,18.32,18.32,0,0,1,6.46-4.41,21,21,0,0,1,8.2-1.59A17.71,17.71,0,0,1,241.17,114a19.55,19.55,0,0,1,1.29,7.67l-.07,3.34H209.81l-1.75-6.22h27.57l-1.14,1.29v-1.82a8.81,8.81,0,0,0-1.67-4.49,10.37,10.37,0,0,0-3.65-3.11,10.22,10.22,0,0,0-4.78-1.14,13.74,13.74,0,0,0-6.91,1.6,9.79,9.79,0,0,0-4.25,4.55,16.66,16.66,0,0,0-1.45,7.37,14.73,14.73,0,0,0,1.75,7.29,11.88,11.88,0,0,0,4.94,4.71,15.66,15.66,0,0,0,7.36,1.67,14.74,14.74,0,0,0,5.47-1,19.32,19.32,0,0,0,5.55-3.57l3.94,5.55a17.61,17.61,0,0,1-4.48,3.19,28.44,28.44,0,0,1-5.54,2.2A22.12,22.12,0,0,1,225.07,143.85Zm30.83-.76V93h7.82v50.05Zm-8.28-32.28v-7.59H273v7.59Z"/><path class="cls-3" d="M282.35,144.09v-6l30.3-40.56,1.14,1.29H284.32v-7.9h38.51v5.93l-30.15,40.63-1.22-1.29h32.2v7.9Zm69.21.76a22.7,22.7,0,0,1-10.94-2.59,19.89,19.89,0,0,1-7.44-7.21,20.44,20.44,0,0,1-2.66-10.48A23.35,23.35,0,0,1,332,116a20.51,20.51,0,0,1,4.18-6.69,18.29,18.29,0,0,1,6.45-4.4,21,21,0,0,1,8.2-1.6,18,18,0,0,1,13,5.55,17,17,0,0,1,3.8,6.15,19.89,19.89,0,0,1,1.29,7.67l-.08,3.34H336.29l-1.74-6.23h27.56L361,121.07v-1.82a8.82,8.82,0,0,0-1.68-4.48,10.35,10.35,0,0,0-8.43-4.25,13.87,13.87,0,0,0-6.91,1.59,9.82,9.82,0,0,0-4.25,4.56,16.78,16.78,0,0,0-1.44,7.37,14.72,14.72,0,0,0,1.74,7.29A12.07,12.07,0,0,0,345,136a15.7,15.7,0,0,0,7.37,1.67,14.82,14.82,0,0,0,5.47-1,19.15,19.15,0,0,0,5.54-3.57l3.95,5.54a17.72,17.72,0,0,1-4.48,3.19,28.31,28.31,0,0,1-5.55,2.21A22.55,22.55,0,0,1,351.56,144.85Zm25.89-.76V104.21h7.9v12.54l-.76-3a14.19,14.19,0,0,1,2.81-5.24,16.16,16.16,0,0,1,4.63-3.72,11.85,11.85,0,0,1,5.47-1.37,12.53,12.53,0,0,1,2.43.23,9,9,0,0,1,1.9.53l-2.05,8.5a11,11,0,0,0-2-.6,7.47,7.47,0,0,0-2.13-.31,9.67,9.67,0,0,0-4,.84,10.15,10.15,0,0,0-3.26,2.2,10.48,10.48,0,0,0-2.21,3.27,9.6,9.6,0,0,0-.83,4v22Z"/><path class="cls-3" d="M409.15,115.84a21,21,0,1,1,10.17,28A21,21,0,0,1,409.15,115.84Zm31.72,14.79a14,14,0,1,0-18.56,6.76A14,14,0,0,0,440.87,130.63Z"/></svg>