<svg id="Layer_1" data-name="Layer 1" xmlns="http://www.w3.org/2000/svg" xmlns:xlink="http://www.w3.org/1999/xlink" viewBox="0 0 480 480"><defs><style>.cls-1{fill:#160459;}.cls-2{fill:#fff;}.cls-3{fill:#2bbf86;}.cls-4{fill:url(#linear-gradient);}</style><linearGradient id="linear-gradient" x1="168.59" y1="109.59" x2="308.43" y2="249.43" gradientUnits="userSpaceOnUse"><stop offset="0" stop-color="#dead3b"/><stop offset="1" stop-color="#f56622"/></linearGradient></defs><rect class="cls-1" width="480" height="480"/><path class="cls-2" d="M240,85.74A95.29,95.29,0,0,0,157.93,229.4l26.64-26.64a59.57,59.57,0,0,1,77.19-77.19L288.4,99A94.87,94.87,0,0,0,240,85.74Z"/><path class="cls-3" d="M322.07,132.6l-26.64,26.64a59.55,59.55,0,0,1-77.16,77.19l-26.64,26.64A95.28,95.28,0,0,0,322.07,132.6Z"/><circle class="cls-4" cx="240" cy="181" r="29.77"/><circle class="cls-2" cx="120.77" cy="181.26" r="8.76"/><circle class="cls-2" cx="155.51" cy="96.87" r="8.76"/><circle class="cls-2" cx="239.74" cy="61.77" r="8.76"/><circle class="cls-3" cx="359.23" cy="180.74" r="8.76"/><circle class="cls-3" cx="324.49" cy="265.13" r="8.76"/><circle class="cls-3" cx="240.26" cy="300.24" r="8.76"/><circle class="cls-3" cx="194.61" cy="291.26" r="8.76"/><circle class="cls-2" cx="129.94" cy="226.87" r="8.76"/><circle class="cls-2" cx="129.74" cy="135.61" r="8.76"/><circle class="cls-2" cx="194.13" cy="70.94" r="8.76"/><circle class="cls-2" cx="285.39" cy="70.74" r="8.76"/><circle class="cls-3" cx="350.06" cy="135.13" r="8.76"/><circle class="cls-3" cx="350.26" cy="226.39" r="8.76"/><circle class="cls-3" cx="285.87" cy="291.06" r="8.76"/><path class="cls-2" d="M108.47,404.91V358.45h6.44l28.4,38-1.06.59c-.18-1.1-.33-2.3-.46-3.58s-.27-2.72-.4-4.18-.18-3.08-.27-4.71-.09-3.43-.13-5.24-.07-3.7-.07-5.65V358.45h7.17v46.46h-6.57l-27.94-36.64.73-.93q.33,4.05.53,6.9c.18,1.86.31,3.46.4,4.78s.22,2.35.27,3.19.06,1.46.06,2,.07,1,.07,1.39v19.32Zm67.16.66a19.77,19.77,0,0,1-9.56-2.26,17.47,17.47,0,0,1-6.5-6.3,17.85,17.85,0,0,1-2.32-9.16,20.51,20.51,0,0,1,1.32-7.5,18.13,18.13,0,0,1,3.65-5.84,16.18,16.18,0,0,1,5.65-3.85,18.28,18.28,0,0,1,7.16-1.39,15.71,15.71,0,0,1,11.35,4.84,14.91,14.91,0,0,1,3.32,5.38,17.35,17.35,0,0,1,1.13,6.7l-.07,2.92H162.29l-1.53-5.44h24.09l-1,1.13v-1.6a7.65,7.65,0,0,0-1.46-3.91,9.09,9.09,0,0,0-7.37-3.72,12.07,12.07,0,0,0-6,1.4,8.55,8.55,0,0,0-3.71,4,14.64,14.64,0,0,0-1.26,6.44,12.8,12.8,0,0,0,1.52,6.37,10.45,10.45,0,0,0,4.32,4.11,13.67,13.67,0,0,0,6.43,1.46,13,13,0,0,0,4.78-.86,16.92,16.92,0,0,0,4.85-3.12l3.45,4.84a15.38,15.38,0,0,1-3.92,2.79,24.56,24.56,0,0,1-4.84,1.93A19.6,19.6,0,0,1,175.63,405.57Zm26.94-.66V361.17h6.84v43.74Zm-7.23-28.21v-6.64H217.5v6.64Z"/><path class="cls-3" d="M225.68,405.78v-5.25l26.48-35.44,1,1.13H227.41v-6.9h33.64v5.18L234.71,400l-1.06-1.13h28.13v6.91Zm60.48.66a19.77,19.77,0,0,1-9.56-2.26,17.4,17.4,0,0,1-6.5-6.3,17.85,17.85,0,0,1-2.32-9.16,20.51,20.51,0,0,1,1.32-7.5,18.13,18.13,0,0,1,3.65-5.84,16.18,16.18,0,0,1,5.65-3.85,18.28,18.28,0,0,1,7.16-1.39,15.5,15.5,0,0,1,14.67,10.22,17.35,17.35,0,0,1,1.13,6.7l-.07,2.92H272.82l-1.53-5.44h24.09l-1,1.13v-1.59a7.68,7.68,0,0,0-1.46-3.92,9.09,9.09,0,0,0-7.37-3.72,12.07,12.07,0,0,0-6,1.4,8.55,8.55,0,0,0-3.71,4,14.64,14.64,0,0,0-1.26,6.44,12.8,12.8,0,0,0,1.52,6.37,10.45,10.45,0,0,0,4.32,4.11,13.55,13.55,0,0,0,6.43,1.46,13,13,0,0,0,4.78-.86,16.92,16.92,0,0,0,4.85-3.12l3.45,4.84a15.14,15.14,0,0,1-3.92,2.79,24.56,24.56,0,0,1-4.84,1.93A19.6,19.6,0,0,1,286.16,406.44Zm22.63-.66V370.93h6.9v11l-.67-2.66a12.51,12.51,0,0,1,2.46-4.58,14.06,14.06,0,0,1,4-3.25,10.29,10.29,0,0,1,4.78-1.2,11,11,0,0,1,2.12.2,8,8,0,0,1,1.66.47l-1.79,7.43a9.44,9.44,0,0,0-1.79-.53,6.64,6.64,0,0,0-1.86-.27,8.55,8.55,0,0,0-3.45.73,8.86,8.86,0,0,0-2.86,1.93,9.53,9.53,0,0,0-1.92,2.85,8.34,8.34,0,0,0-.73,3.52v19.25Z"/><path class="cls-3" d="M336.48,381.09a18.38,18.38,0,1,1,8.89,24.43A18.38,18.38,0,0,1,336.48,381.09ZM364.2,394a12.2,12.2,0,1,0-16.21,5.9A12.2,12.2,0,0,0,364.2,394Z"/></svg>