<svg width="489" height="973" viewBox="0 0 489 973" fill="none" xmlns="http://www.w3.org/2000/svg">
<g filter="url(#filter0_d_6_988)">
<rect x="27" y="22.22" width="414" height="898" rx="25.2076" fill="#160459"/>
<g clip-path="url(#clip0_6_988)">
<path d="M429 276.22H39V666.22H429V276.22Z" fill="#160459"/>
<path d="M234 345.884C220.354 345.888 206.951 349.499 195.15 356.351C183.348 363.203 173.568 373.053 166.799 384.902C160.029 396.751 156.512 410.179 156.604 423.825C156.695 437.471 160.391 450.85 167.318 462.607L188.963 440.962C185.531 432.198 184.729 422.623 186.655 413.41C188.581 404.197 193.151 395.745 199.807 389.089C206.462 382.434 214.914 377.863 224.127 375.937C233.341 374.011 242.916 374.813 251.68 378.246L273.325 356.657C261.421 349.602 247.838 345.88 234 345.884Z" fill="white"/>
<path d="M300.682 383.957L279.037 405.602C282.473 414.365 283.28 423.939 281.357 433.152C279.434 442.366 274.866 450.818 268.212 457.475C261.559 464.131 253.108 468.703 243.895 470.629C234.682 472.555 225.108 471.752 216.344 468.319L194.699 489.964C209.484 498.671 226.742 502.22 243.762 500.053C260.782 497.886 276.6 490.126 288.731 477.992C300.862 465.858 308.618 450.038 310.781 433.018C312.945 415.997 309.392 398.74 300.682 383.957Z" fill="#2BBF86"/>
<path d="M234 447.471C247.359 447.471 258.188 436.641 258.188 423.282C258.188 409.924 247.359 399.094 234 399.094C220.641 399.094 209.812 409.924 209.812 423.282C209.812 436.641 220.641 447.471 234 447.471Z" fill="url(#paint0_linear_6_988)"/>
<path d="M137.126 430.611C141.057 430.611 144.243 427.425 144.243 423.494C144.243 419.563 141.057 416.376 137.126 416.376C133.195 416.376 130.008 419.563 130.008 423.494C130.008 427.425 133.195 430.611 137.126 430.611Z" fill="white"/>
<path d="M165.352 362.044C169.283 362.044 172.469 358.858 172.469 354.927C172.469 350.996 169.283 347.809 165.352 347.809C161.421 347.809 158.234 350.996 158.234 354.927C158.234 358.858 161.421 362.044 165.352 362.044Z" fill="white"/>
<path d="M233.789 333.526C237.72 333.526 240.906 330.339 240.906 326.408C240.906 322.477 237.72 319.291 233.789 319.291C229.858 319.291 226.671 322.477 226.671 326.408C226.671 330.339 229.858 333.526 233.789 333.526Z" fill="white"/>
<path d="M330.874 430.189C334.805 430.189 337.992 427.002 337.992 423.071C337.992 419.14 334.805 415.954 330.874 415.954C326.943 415.954 323.757 419.14 323.757 423.071C323.757 427.002 326.943 430.189 330.874 430.189Z" fill="#2BBF86"/>
<path d="M302.648 498.756C306.579 498.756 309.766 495.569 309.766 491.638C309.766 487.707 306.579 484.521 302.648 484.521C298.717 484.521 295.531 487.707 295.531 491.638C295.531 495.569 298.717 498.756 302.648 498.756Z" fill="#2BBF86"/>
<path d="M234.211 527.282C238.142 527.282 241.329 524.096 241.329 520.165C241.329 516.234 238.142 513.047 234.211 513.047C230.28 513.047 227.094 516.234 227.094 520.165C227.094 524.096 230.28 527.282 234.211 527.282Z" fill="#2BBF86"/>
<path d="M197.121 519.986C201.052 519.986 204.238 516.8 204.238 512.869C204.238 508.938 201.052 505.751 197.121 505.751C193.19 505.751 190.003 508.938 190.003 512.869C190.003 516.8 193.19 519.986 197.121 519.986Z" fill="#2BBF86"/>
<path d="M144.576 467.669C148.507 467.669 151.694 464.483 151.694 460.552C151.694 456.621 148.507 453.434 144.576 453.434C140.645 453.434 137.459 456.621 137.459 460.552C137.459 464.483 140.645 467.669 144.576 467.669Z" fill="white"/>
<path d="M144.414 393.521C148.345 393.521 151.531 390.334 151.531 386.403C151.531 382.472 148.345 379.286 144.414 379.286C140.483 379.286 137.296 382.472 137.296 386.403C137.296 390.334 140.483 393.521 144.414 393.521Z" fill="white"/>
<path d="M196.731 340.976C200.662 340.976 203.848 337.79 203.848 333.859C203.848 329.928 200.662 326.741 196.731 326.741C192.8 326.741 189.613 329.928 189.613 333.859C189.613 337.79 192.8 340.976 196.731 340.976Z" fill="white"/>
<path d="M270.879 340.814C274.81 340.814 277.997 337.627 277.997 333.696C277.997 329.765 274.81 326.579 270.879 326.579C266.948 326.579 263.762 329.765 263.762 333.696C263.762 337.627 266.948 340.814 270.879 340.814Z" fill="white"/>
<path d="M323.424 393.131C327.355 393.131 330.541 389.944 330.541 386.013C330.541 382.082 327.355 378.896 323.424 378.896C319.493 378.896 316.306 382.082 316.306 386.013C316.306 389.944 319.493 393.131 323.424 393.131Z" fill="#2BBF86"/>
<path d="M323.586 467.279C327.517 467.279 330.704 464.093 330.704 460.162C330.704 456.231 327.517 453.044 323.586 453.044C319.655 453.044 316.469 456.231 316.469 460.162C316.469 464.093 319.655 467.279 323.586 467.279Z" fill="#2BBF86"/>
<path d="M271.269 519.824C275.2 519.824 278.387 516.637 278.387 512.706C278.387 508.775 275.2 505.589 271.269 505.589C267.338 505.589 264.152 508.775 264.152 512.706C264.152 516.637 267.338 519.824 271.269 519.824Z" fill="#2BBF86"/>
<path d="M127.132 605.209V567.461H132.364L155.439 598.336L154.578 598.815C154.432 597.921 154.31 596.946 154.204 595.906C154.099 594.866 153.985 593.696 153.879 592.51C153.774 591.324 153.733 590.007 153.66 588.683C153.587 587.359 153.587 585.896 153.554 584.426C153.522 582.955 153.497 581.419 153.497 579.835V567.461H159.323V605.209H153.985L131.284 575.439L131.877 574.684C132.056 576.877 132.199 578.746 132.307 580.29C132.454 581.801 132.559 583.101 132.632 584.174C132.706 585.246 132.811 586.083 132.852 586.766C132.892 587.448 132.901 587.952 132.901 588.391C132.901 588.829 132.957 589.203 132.957 589.52V605.218L127.132 605.209ZM181.699 605.746C178.997 605.797 176.325 605.165 173.932 603.909C171.752 602.697 169.931 600.931 168.651 598.791C167.365 596.524 166.714 593.953 166.766 591.348C166.74 589.268 167.103 587.201 167.838 585.254C168.514 583.498 169.521 581.887 170.804 580.509C172.094 579.152 173.659 578.085 175.394 577.381C177.238 576.618 179.216 576.234 181.212 576.252C182.935 576.251 184.64 576.599 186.225 577.275C187.81 577.951 189.242 578.94 190.434 580.184C191.635 581.432 192.555 582.922 193.131 584.556C193.793 586.292 194.105 588.142 194.049 589.999L193.992 592.372H170.861L169.617 587.952H189.191L188.378 588.87V587.57C188.285 586.422 187.874 585.322 187.192 584.393C186.503 583.452 185.601 582.688 184.561 582.163C183.52 581.638 182.37 581.366 181.204 581.371C179.508 581.322 177.828 581.714 176.329 582.508C174.996 583.233 173.937 584.375 173.314 585.758C172.582 587.402 172.232 589.191 172.291 590.991C172.246 592.794 172.672 594.577 173.526 596.166C174.346 597.597 175.566 598.757 177.036 599.506C178.654 600.321 180.448 600.729 182.26 600.692C183.587 600.705 184.905 600.468 186.144 599.993C187.593 599.38 188.926 598.522 190.084 597.458L192.887 601.391C191.951 602.309 190.876 603.074 189.702 603.657C188.451 604.318 187.133 604.844 185.77 605.226C184.441 605.574 183.073 605.749 181.699 605.746ZM203.588 605.209V569.671H209.146V605.209H203.588ZM197.714 582.289V576.894H215.719V582.289H197.714Z" fill="white"/>
<path d="M222.365 605.916V601.651L243.88 572.856L244.692 573.774H223.771V568.168H251.103V572.376L229.702 601.22L228.841 600.302H251.696V605.916H222.365ZM271.505 606.453C268.803 606.504 266.131 605.872 263.737 604.616C261.556 603.406 259.734 601.64 258.456 599.498C257.171 597.231 256.52 594.66 256.571 592.055C256.545 589.975 256.909 587.908 257.644 585.961C258.32 584.205 259.327 582.594 260.609 581.216C261.899 579.858 263.464 578.792 265.2 578.088C267.044 577.325 269.022 576.941 271.017 576.959C273.619 576.943 276.161 577.732 278.295 579.219C280.429 580.706 282.051 582.817 282.937 585.262C283.599 586.999 283.911 588.849 283.855 590.706L283.798 593.079H260.666L259.423 588.659H278.996L278.184 589.577V588.285C278.091 587.134 277.68 586.031 276.997 585.1C276.309 584.159 275.407 583.395 274.366 582.87C273.326 582.344 272.175 582.073 271.009 582.078C269.313 582.029 267.634 582.42 266.134 583.215C264.802 583.94 263.743 585.082 263.12 586.465C262.387 588.109 262.037 589.898 262.096 591.698C262.052 593.501 262.478 595.284 263.331 596.873C264.152 598.304 265.372 599.464 266.841 600.213C268.458 601.032 270.253 601.44 272.066 601.399C273.393 601.412 274.71 601.175 275.949 600.7C277.398 600.087 278.731 599.229 279.89 598.165L282.693 602.097C281.759 603.018 280.684 603.783 279.508 604.364C278.257 605.025 276.938 605.551 275.576 605.932C274.247 606.281 272.879 606.455 271.505 606.453ZM289.892 605.916V577.601H295.498V586.538L294.954 584.377C295.352 583.01 296.033 581.742 296.952 580.656C297.864 579.583 298.966 578.687 300.202 578.015C301.399 577.38 302.732 577.046 304.086 577.04C304.664 577.038 305.241 577.093 305.809 577.203C306.271 577.281 306.723 577.409 307.157 577.584L305.703 583.621C305.234 583.43 304.747 583.286 304.249 583.191C303.758 583.046 303.249 582.972 302.737 582.971C301.772 582.972 300.817 583.174 299.934 583.564C299.064 583.93 298.275 584.463 297.611 585.133C296.955 585.803 296.426 586.588 296.051 587.448C295.647 588.347 295.445 589.323 295.457 590.308V605.949L289.892 605.916Z" fill="#2BBF86"/>
<path d="M312.39 585.856C313.639 583.179 315.653 580.933 318.178 579.401C320.703 577.87 323.626 577.121 326.577 577.25C329.527 577.38 332.373 578.381 334.755 580.127C337.137 581.874 338.947 584.288 339.957 587.063C340.967 589.838 341.131 592.851 340.429 595.72C339.727 598.588 338.19 601.185 336.012 603.18C333.835 605.175 331.115 606.48 328.196 606.93C325.277 607.379 322.29 606.953 319.613 605.705C317.835 604.876 316.238 603.705 314.913 602.259C313.588 600.813 312.56 599.12 311.89 597.277C311.219 595.433 310.918 593.476 311.004 591.516C311.09 589.557 311.561 587.633 312.39 585.856ZM334.913 596.345C335.741 594.568 336.025 592.585 335.727 590.648C335.429 588.71 334.563 586.904 333.238 585.458C331.914 584.012 330.19 582.992 328.286 582.526C326.381 582.06 324.382 582.169 322.539 582.839C320.697 583.51 319.095 584.712 317.935 586.293C316.776 587.874 316.112 589.764 316.026 591.723C315.941 593.681 316.438 595.622 317.456 597.298C318.473 598.974 319.965 600.31 321.742 601.139C324.124 602.249 326.85 602.368 329.32 601.469C331.79 600.57 333.801 598.727 334.913 596.345Z" fill="#2BBF86"/>
</g>
</g>
<defs>
<filter id="filter0_d_6_988" x="0.149879" y="0.0394363" width="488.713" height="972.713" filterUnits="userSpaceOnUse" color-interpolation-filters="sRGB">
<feFlood flood-opacity="0" result="BackgroundImageFix"/>
<feColorMatrix in="SourceAlpha" type="matrix" values="0 0 0 0 0 0 0 0 0 0 0 0 0 0 0 0 0 0 127 0" result="hardAlpha"/>
<feOffset dx="10.5066" dy="15.1762"/>
<feGaussianBlur stdDeviation="18.6783"/>
<feComposite in2="hardAlpha" operator="out"/>
<feColorMatrix type="matrix" values="0 0 0 0 0 0 0 0 0 0 0 0 0 0 0 0 0 0 0.1 0"/>
<feBlend mode="normal" in2="BackgroundImageFix" result="effect1_dropShadow_6_988"/>
<feBlend mode="normal" in="SourceGraphic" in2="effect1_dropShadow_6_988" result="shape"/>
</filter>
<linearGradient id="paint0_linear_6_988" x1="175.979" y1="365.262" x2="289.599" y2="478.882" gradientUnits="userSpaceOnUse">
<stop stop-color="#DEAD3B"/>
<stop offset="1" stop-color="#F56622"/>
</linearGradient>
<clipPath id="clip0_6_988">
<rect width="390" height="390" fill="white" transform="translate(39 276.22)"/>
</clipPath>
</defs>
</svg>
